<svg width="90" height="100" viewBox="0 0 90 100" fill="none" xmlns="http://www.w3.org/2000/svg">
<g opacity="0.6">
<rect width="1.47541" height="1.47783" fill="#ADB5BD"/>
<rect x="9.83594" width="1.47541" height="1.47783" fill="#ADB5BD"/>
<rect x="19.6719" width="1.47541" height="1.47783" fill="#ADB5BD"/>
<rect x="29.5083" width="1.47541" height="1.47783" fill="#ADB5BD"/>
<rect x="39.3442" width="1.47541" height="1.47783" fill="#ADB5BD"/>
<rect x="49.1802" width="1.47541" height="1.47783" fill="#ADB5BD"/>
<rect x="59.0166" width="1.47541" height="1.47783" fill="#ADB5BD"/>
<rect x="68.8525" width="1.47541" height="1.47783" fill="#ADB5BD"/>
<rect x="78.6885" width="1.47541" height="1.47783" fill="#ADB5BD"/>
<rect x="88.5244" width="1.47541" height="1.47783" fill="#ADB5BD"/>
<rect y="9.85229" width="1.47541" height="1.47783" fill="#ADB5BD"/>
<rect x="9.83594" y="9.85229" width="1.47541" height="1.47783" fill="#ADB5BD"/>
<rect x="19.6719" y="9.85229" width="1.47541" height="1.47783" fill="#ADB5BD"/>
<rect x="29.5083" y="9.85229" width="1.47541" height="1.47783" fill="#ADB5BD"/>
<rect x="39.3442" y="9.85229" width="1.47541" height="1.47783" fill="#ADB5BD"/>
<rect x="49.1802" y="9.85229" width="1.47541" height="1.47783" fill="#ADB5BD"/>
<rect x="59.0166" y="9.85229" width="1.47541" height="1.47783" fill="#ADB5BD"/>
<rect x="68.8525" y="9.85229" width="1.47541" height="1.47783" fill="#ADB5BD"/>
<rect x="78.6885" y="9.85229" width="1.47541" height="1.47783" fill="#ADB5BD"/>
<rect x="88.5244" y="9.85229" width="1.47541" height="1.47783" fill="#ADB5BD"/>
<rect y="19.7045" width="1.47541" height="1.47783" fill="#ADB5BD"/>
<rect x="9.83594" y="19.7043" width="1.47541" height="1.47783" fill="#ADB5BD"/>
<rect x="19.6719" y="19.7043" width="1.47541" height="1.47783" fill="#ADB5BD"/>
<rect x="29.5083" y="19.7043" width="1.47541" height="1.47783" fill="#ADB5BD"/>
<rect x="39.3442" y="19.7043" width="1.47541" height="1.47783" fill="#ADB5BD"/>
<rect x="49.1802" y="19.7043" width="1.47541" height="1.47783" fill="#ADB5BD"/>
<rect x="59.0166" y="19.7043" width="1.47541" height="1.47783" fill="#ADB5BD"/>
<rect x="68.8525" y="19.7043" width="1.47541" height="1.47783" fill="#ADB5BD"/>
<rect x="78.6885" y="19.7043" width="1.47541" height="1.47783" fill="#ADB5BD"/>
<rect x="88.5244" y="19.7043" width="1.47541" height="1.47783" fill="#ADB5BD"/>
<rect y="29.5566" width="1.47541" height="1.47783" fill="#ADB5BD"/>
<rect x="9.83594" y="29.5566" width="1.47541" height="1.47783" fill="#ADB5BD"/>
<rect x="19.6719" y="29.5566" width="1.47541" height="1.47783" fill="#ADB5BD"/>
<rect x="29.5083" y="29.5566" width="1.47541" height="1.47783" fill="#ADB5BD"/>
<rect x="39.3442" y="29.5566" width="1.47541" height="1.47783" fill="#ADB5BD"/>
<rect x="49.1802" y="29.5566" width="1.47541" height="1.47783" fill="#ADB5BD"/>
<rect x="59.0166" y="29.5566" width="1.47541" height="1.47783" fill="#ADB5BD"/>
<rect x="68.8525" y="29.5566" width="1.47541" height="1.47783" fill="#ADB5BD"/>
<rect x="78.6885" y="29.5566" width="1.47541" height="1.47783" fill="#ADB5BD"/>
<rect x="88.5244" y="29.5566" width="1.47541" height="1.47783" fill="#ADB5BD"/>
<rect y="39.4089" width="1.47541" height="1.47783" fill="#ADB5BD"/>
<rect x="9.83594" y="39.4088" width="1.47541" height="1.47783" fill="#ADB5BD"/>
<rect x="19.6719" y="39.4088" width="1.47541" height="1.47783" fill="#ADB5BD"/>
<rect x="29.5083" y="39.4088" width="1.47541" height="1.47783" fill="#ADB5BD"/>
<rect x="39.3442" y="39.4088" width="1.47541" height="1.47783" fill="#ADB5BD"/>
<rect x="49.1802" y="39.4088" width="1.47541" height="1.47783" fill="#ADB5BD"/>
<rect x="59.0166" y="39.4088" width="1.47541" height="1.47783" fill="#ADB5BD"/>
<rect x="68.8525" y="39.4088" width="1.47541" height="1.47783" fill="#ADB5BD"/>
<rect x="78.6885" y="39.4088" width="1.47541" height="1.47783" fill="#ADB5BD"/>
<rect x="88.5244" y="39.4088" width="1.47541" height="1.47783" fill="#ADB5BD"/>
<rect y="49.2611" width="1.47541" height="1.47783" fill="#ADB5BD"/>
<rect x="9.83594" y="49.2611" width="1.47541" height="1.47783" fill="#ADB5BD"/>
<rect x="19.6719" y="49.2611" width="1.47541" height="1.47783" fill="#ADB5BD"/>
<rect x="29.5083" y="49.2611" width="1.47541" height="1.47783" fill="#ADB5BD"/>
<rect x="39.3442" y="49.2611" width="1.47541" height="1.47783" fill="#ADB5BD"/>
<rect x="49.1802" y="49.2611" width="1.47541" height="1.47783" fill="#ADB5BD"/>
<rect x="59.0166" y="49.2611" width="1.47541" height="1.47783" fill="#ADB5BD"/>
<rect x="68.8525" y="49.2611" width="1.47541" height="1.47783" fill="#ADB5BD"/>
<rect x="78.6885" y="49.2611" width="1.47541" height="1.47783" fill="#ADB5BD"/>
<rect x="88.5244" y="49.2611" width="1.47541" height="1.47783" fill="#ADB5BD"/>
<rect y="59.1133" width="1.47541" height="1.47783" fill="#ADB5BD"/>
<rect x="9.83594" y="59.1133" width="1.47541" height="1.47783" fill="#ADB5BD"/>
<rect x="19.6719" y="59.1133" width="1.47541" height="1.47783" fill="#ADB5BD"/>
<rect x="29.5083" y="59.1133" width="1.47541" height="1.47783" fill="#ADB5BD"/>
<rect x="39.3442" y="59.1133" width="1.47541" height="1.47783" fill="#ADB5BD"/>
<rect x="49.1802" y="59.1133" width="1.47541" height="1.47783" fill="#ADB5BD"/>
<rect x="59.0166" y="59.1133" width="1.47541" height="1.47783" fill="#ADB5BD"/>
<rect x="68.8525" y="59.1133" width="1.47541" height="1.47783" fill="#ADB5BD"/>
<rect x="78.6885" y="59.1133" width="1.47541" height="1.47783" fill="#ADB5BD"/>
<rect x="88.5244" y="59.1133" width="1.47541" height="1.47783" fill="#ADB5BD"/>
<rect y="68.9656" width="1.47541" height="1.47783" fill="#ADB5BD"/>
<rect x="9.83594" y="68.9656" width="1.47541" height="1.47783" fill="#ADB5BD"/>
<rect x="19.6719" y="68.9656" width="1.47541" height="1.47783" fill="#ADB5BD"/>
<rect x="29.5083" y="68.9656" width="1.47541" height="1.47783" fill="#ADB5BD"/>
<rect x="39.3442" y="68.9656" width="1.47541" height="1.47783" fill="#ADB5BD"/>
<rect x="49.1802" y="68.9656" width="1.47541" height="1.47783" fill="#ADB5BD"/>
<rect x="59.0166" y="68.9656" width="1.47541" height="1.47783" fill="#ADB5BD"/>
<rect x="68.8525" y="68.9656" width="1.47541" height="1.47783" fill="#ADB5BD"/>
<rect x="78.6885" y="68.9656" width="1.47541" height="1.47783" fill="#ADB5BD"/>
<rect x="88.5244" y="68.9656" width="1.47541" height="1.47783" fill="#ADB5BD"/>
<rect y="78.8177" width="1.47541" height="1.47783" fill="#ADB5BD"/>
<rect x="9.83594" y="78.8177" width="1.47541" height="1.47783" fill="#ADB5BD"/>
<rect x="19.6719" y="78.8177" width="1.47541" height="1.47783" fill="#ADB5BD"/>
<rect x="29.5083" y="78.8177" width="1.47541" height="1.47783" fill="#ADB5BD"/>
<rect x="39.3442" y="78.8177" width="1.47541" height="1.47783" fill="#ADB5BD"/>
<rect x="49.1802" y="78.8177" width="1.47541" height="1.47783" fill="#ADB5BD"/>
<rect x="59.0166" y="78.8177" width="1.47541" height="1.47783" fill="#ADB5BD"/>
<rect x="68.8525" y="78.8177" width="1.47541" height="1.47783" fill="#ADB5BD"/>
<rect x="78.6885" y="78.8177" width="1.47541" height="1.47783" fill="#ADB5BD"/>
<rect x="88.5244" y="78.8177" width="1.47541" height="1.47783" fill="#ADB5BD"/>
<rect y="88.6699" width="1.47541" height="1.47783" fill="#ADB5BD"/>
<rect x="9.83594" y="88.6699" width="1.47541" height="1.47783" fill="#ADB5BD"/>
<rect x="19.6719" y="88.6699" width="1.47541" height="1.47783" fill="#ADB5BD"/>
<rect x="29.5083" y="88.6699" width="1.47541" height="1.47783" fill="#ADB5BD"/>
<rect x="39.3442" y="88.6699" width="1.47541" height="1.47783" fill="#ADB5BD"/>
<rect x="49.1802" y="88.6699" width="1.47541" height="1.47783" fill="#ADB5BD"/>
<rect x="59.0166" y="88.6699" width="1.47541" height="1.47783" fill="#ADB5BD"/>
<rect x="68.8525" y="88.6699" width="1.47541" height="1.47783" fill="#ADB5BD"/>
<rect x="78.6885" y="88.6699" width="1.47541" height="1.47783" fill="#ADB5BD"/>
<rect x="88.5244" y="88.6699" width="1.47541" height="1.47783" fill="#ADB5BD"/>
<rect y="98.5222" width="1.47541" height="1.47783" fill="#ADB5BD"/>
<rect x="9.83594" y="98.5222" width="1.47541" height="1.47783" fill="#ADB5BD"/>
<rect x="19.6719" y="98.5222" width="1.47541" height="1.47783" fill="#ADB5BD"/>
<rect x="29.5083" y="98.5222" width="1.47541" height="1.47783" fill="#ADB5BD"/>
<rect x="39.3442" y="98.5222" width="1.47541" height="1.47783" fill="#ADB5BD"/>
<rect x="49.1802" y="98.5222" width="1.47541" height="1.47783" fill="#ADB5BD"/>
<rect x="59.0166" y="98.5222" width="1.47541" height="1.47783" fill="#ADB5BD"/>
<rect x="68.8525" y="98.5222" width="1.47541" height="1.47783" fill="#ADB5BD"/>
<rect x="78.6885" y="98.5222" width="1.47541" height="1.47783" fill="#ADB5BD"/>
<rect x="88.5244" y="98.5222" width="1.47541" height="1.47783" fill="#ADB5BD"/>
</g>
</svg>
