<svg width="40" height="40" viewBox="0 0 40 40" fill="none" xmlns="http://www.w3.org/2000/svg">
<path d="M34.7254 8.09589C36.2421 9.91589 36.9988 12.0392 36.9988 14.4659C36.9988 23.2609 31.9954 25.8392 27.2938 26.5976C27.9004 27.6592 28.0521 28.8726 28.0521 30.0859V36.3026C28.0521 37.0609 27.5971 37.5159 26.9904 37.5159C26.8305 37.5181 26.6717 37.4883 26.5235 37.4281C26.3753 37.3679 26.2406 37.2786 26.1275 37.1655C26.0144 37.0524 25.9251 36.9177 25.8649 36.7695C25.8047 36.6213 25.7749 36.4625 25.7771 36.3026V30.0859C25.857 29.4503 25.7891 28.8048 25.5786 28.1998C25.3682 27.5947 25.0209 27.0464 24.5638 26.5976L25.3221 24.6259C30.0238 24.0192 34.8771 22.5026 34.8771 14.3142C34.8771 12.3426 34.1188 10.5226 32.7538 9.00589L32.4504 7.79422C33.0272 6.34097 33.0802 4.73231 32.6004 3.24422C31.8438 3.39422 30.3271 3.69922 27.7504 5.51922L26.8388 5.66922C23.2567 4.75967 19.5042 4.75967 15.9221 5.66922L15.0104 5.51922C12.2838 3.85089 10.7671 3.39589 10.0071 3.39589C9.55211 4.91256 9.55211 6.57922 10.1571 7.94589L9.85544 9.15756C8.33877 10.6742 7.58044 12.6459 7.58044 14.4659C7.58044 22.5026 12.1304 24.1709 17.1338 24.7776L17.7404 26.7492C16.8304 27.6592 16.3754 28.8726 16.5271 30.0859V36.4542C16.5294 36.6142 16.4995 36.773 16.4393 36.9212C16.3791 37.0694 16.2898 37.2041 16.1767 37.3172C16.0636 37.4303 15.929 37.5196 15.7807 37.5798C15.6325 37.6399 15.4737 37.6698 15.3138 37.6676C15.1538 37.6698 14.995 37.6399 14.8468 37.5798C14.6986 37.5196 14.5639 37.4303 14.4508 37.3172C14.3377 37.2041 14.2484 37.0694 14.1882 36.9212C14.128 36.773 14.0982 36.6142 14.1004 36.4542V32.9676C9.09711 34.0292 7.12544 31.4509 5.60878 29.4809C4.85044 28.5709 4.24377 27.8126 3.48544 27.6609C3.33544 27.5092 2.87877 26.9026 3.03044 26.2959C3.18211 25.6892 3.78878 25.2342 4.39711 25.5376C5.91378 25.8409 6.82211 27.0542 7.73044 28.1159C9.09711 29.9359 10.4621 31.6026 14.5554 30.6942V30.0876C14.4054 28.8742 14.7071 27.6609 15.3138 26.5992C10.7638 25.6892 5.45711 23.1109 5.45711 14.4676C5.45711 12.0409 6.21544 9.91756 7.73211 8.09756C7.27711 5.97589 7.42877 3.70089 8.18711 1.88089L8.94544 1.27422C9.24878 1.12256 11.3721 0.667558 15.7671 3.39589C19.401 2.48601 23.2032 2.48601 26.8371 3.39589C31.0854 0.514224 33.3604 0.967558 33.6638 1.12089L34.4221 1.72756C35.1804 3.85089 35.3321 5.97422 34.7254 8.09589Z" fill="black"/>
</svg>
