<svg width="40" height="30" viewBox="0 0 40 30" fill="none" xmlns="http://www.w3.org/2000/svg">
<g clip-path="url(#clip0)">
<path d="M9.09094 29.8523V14.4777L4.29797 10.1156L0 7.69492V27.1391C0 28.6404 1.22266 29.8523 2.72734 29.8523H9.09094Z" fill="#4285F4"/>
<path d="M30.9092 29.8523H37.2728C38.782 29.8523 40.0001 28.6359 40.0001 27.1391V7.69507L35.132 10.4677L30.9092 14.4777V29.8523Z" fill="#34A853"/>
<path d="M9.09115 14.4777L8.43896 8.47041L9.09115 2.72083L20.0002 10.8603L30.9093 2.72083L31.639 8.16L30.9093 14.4777L20.0002 22.6172L9.09115 14.4777Z" fill="#EA4335"/>
<path d="M30.9092 2.72084V14.4777L40.0001 7.69494V4.07737C40.0001 0.722189 36.1501 -1.19051 33.4548 0.821671L30.9092 2.72084Z" fill="#FBBC04"/>
<path d="M0 7.69479L4.18109 10.8145L9.09094 14.4776V2.7207L6.54531 0.821529C3.84531 -1.1908 0 0.722047 0 4.07707V7.69464V7.69479Z" fill="#C5221F"/>
</g>
<defs>
<clipPath id="clip0">
<rect width="40" height="30" fill="white"/>
</clipPath>
</defs>
</svg>
