<svg width="48" height="48" viewBox="0 0 48 48" fill="none" xmlns="http://www.w3.org/2000/svg">
<path d="M42 17.3C42 37.8 24 44 24 44C24 44 6 37.8 6 17.3C6 14.8 6.2 12.7 6.4 11C6.7 8.5 8.4 6.5 10.8 5.9C13.9 5 18.8 4 24 4C29.2 4 34.1 5 37.3 5.9C39.7 6.5 41.4 8.6 41.7 11C41.8 12.7 42 14.9 42 17.3Z" fill="#E9E9E9"/>
<path d="M24 6.15C29.1722 6.15 34.0278 7.2 37.1944 8.04C38.4611 8.355 39.3056 9.405 39.5167 10.77C39.7278 12.765 39.8333 14.865 39.8333 16.965C39.8333 33.345 27.6944 39.96 24 41.535C20.3056 39.855 8.16667 33.24 8.16667 16.965C8.16667 14.865 8.27222 12.765 8.48333 10.77C8.58889 9.405 9.53889 8.355 10.8056 8.04C13.9722 7.2 18.8278 6.15 24 6.15ZM24 3C18.5111 3 13.3389 4.05 9.96111 4.995C7.53333 5.625 5.63333 7.83 5.42222 10.35C5.21111 12.135 5 14.445 5 16.965C5 38.49 24 45 24 45C24 45 43 38.49 43 16.965C43 14.34 42.7889 12.135 42.5778 10.35C42.2611 7.725 40.4667 5.625 37.9333 4.995C34.6611 4.05 29.4889 3 24 3Z" fill="#171717"/>
<path d="M23 28H25V36H23V28Z" fill="#070707"/>
<path d="M24 10C24 10 18 15 18 23C18 28.2 21.3 31.5 23 33L24 30L25 33C26.7 31.5 30 28.2 30 23C30 15 24 10 24 10Z" fill="#262626"/>
<path d="M24 10C24 10 18 15 18 23C18 28.2 21.3 31.5 23 33L24 30V10Z" fill="#070707"/>
</svg>
