<svg width="26" height="26" viewBox="0 0 26 26" fill="none" xmlns="http://www.w3.org/2000/svg">
<g id="mdi:github">
<path id="Vector" d="M13.0003 2.16699C11.5777 2.16699 10.1689 2.4472 8.85459 2.99163C7.54023 3.53606 6.34597 4.33403 5.34 5.34C3.30836 7.37165 2.16699 10.1271 2.16699 13.0003C2.16699 17.7887 5.27616 21.8512 9.57699 23.292C10.1187 23.3787 10.292 23.0428 10.292 22.7503V20.9195C7.29116 21.5695 6.65199 19.4678 6.65199 19.4678C6.15366 18.2112 5.44949 17.8753 5.44949 17.8753C4.46366 17.2037 5.52533 17.2253 5.52533 17.2253C6.60866 17.3012 7.18283 18.3412 7.18283 18.3412C8.12533 19.9878 9.71783 19.5003 10.3353 19.2403C10.4328 18.5362 10.7145 18.0595 11.0178 17.7887C8.61283 17.5178 6.08866 16.5862 6.08866 12.4587C6.08866 11.2562 6.50033 10.292 7.20449 9.52283C7.09616 9.25199 6.71699 8.12533 7.31283 6.66283C7.31283 6.66283 8.22283 6.37033 10.292 7.76783C11.1478 7.52949 12.0795 7.41033 13.0003 7.41033C13.9212 7.41033 14.8528 7.52949 15.7087 7.76783C17.7778 6.37033 18.6878 6.66283 18.6878 6.66283C19.2837 8.12533 18.9045 9.25199 18.7962 9.52283C19.5003 10.292 19.912 11.2562 19.912 12.4587C19.912 16.597 17.377 17.507 14.9612 17.7778C15.3512 18.1137 15.7087 18.7745 15.7087 19.782V22.7503C15.7087 23.0428 15.882 23.3895 16.4345 23.292C20.7353 21.8403 23.8337 17.7887 23.8337 13.0003C23.8337 11.5777 23.5534 10.1689 23.009 8.85459C22.4646 7.54023 21.6666 6.34597 20.6606 5.34C19.6547 4.33403 18.4604 3.53606 17.1461 2.99163C15.8317 2.4472 14.423 2.16699 13.0003 2.16699Z" fill="white"/>
</g>
</svg>
