<svg width="48" height="48" viewBox="0 0 48 48" fill="none" xmlns="http://www.w3.org/2000/svg">
<path d="M6.10938 10.0859C6.10938 7.88672 7.88672 6.10938 10.0859 6.10938H37.914C40.1132 6.10938 41.8906 7.88672 41.8906 10.0859V37.914C41.8906 40.1132 40.1132 41.8906 37.914 41.8906H10.0859C7.88672 41.8906 6.10938 40.1132 6.10938 37.914V10.0859Z" fill="white" stroke="#070707" stroke-width="0.277395" stroke-miterlimit="10" stroke-linejoin="round"/>
<path d="M38.9101 9.08984V38.9101H9.08984V9.08984H38.9101ZM17.2187 16.8555H13.9492L17.2773 23.8633L13.8828 30.9883H17.1914L19.1211 26.0469L21.0625 30.9883H24.375L20.9765 23.8633L24.2969 16.8555H21.0234L19.1211 21.707L17.2187 16.8555ZM25.0625 25.4179V26.2148C25.0742 27.8437 25.3711 29.082 25.9492 29.9218C26.5312 30.7656 27.3711 31.1836 28.4687 31.1836C29.3554 31.1836 30.082 30.7656 30.6445 29.9218L30.7695 30.9883H33.2656V16.0781H30.5V21.3398C29.9609 20.6406 29.289 20.293 28.4804 20.293C27.3672 20.293 26.5195 20.7148 25.9375 21.5625C25.3554 22.4101 25.0625 23.6953 25.0625 25.4179ZM27.8203 25.3789C27.8203 24.3398 27.9375 23.6133 28.1679 23.2031C28.4023 22.7969 28.7695 22.5937 29.2773 22.5937C29.8203 22.5937 30.2265 22.8515 30.5 23.3711V28.164C30.2187 28.6484 29.8086 28.8906 29.2656 28.8906C28.7422 28.8906 28.3711 28.6875 28.1484 28.2773C27.9297 27.8672 27.8203 27.1406 27.8203 26.1054V25.3789Z" fill="#070707" stroke="#070707" stroke-width="0.277395" stroke-miterlimit="10" stroke-linejoin="round"/>
<path d="M6.10938 10.0859C6.10938 7.88672 7.88672 6.10938 10.0859 6.10938H37.9141C40.1133 6.10938 41.8906 7.88672 41.8906 10.0859V37.9141C41.8906 40.1133 40.1133 41.8906 37.9141 41.8906H10.0859C7.88672 41.8906 6.10938 40.1133 6.10938 37.9141V10.0859Z" fill="white"/>
<path d="M9.08984 9.08984V38.9102H38.9102V9.08984H9.08984ZM19.1211 21.707L21.0234 16.8555H24.2969L20.9766 23.8633L24.375 30.9883H21.0625L19.1211 26.0469L17.1914 30.9883H13.8828L17.2773 23.8633L13.9492 16.8555H17.2188L19.1211 21.707ZM25.0625 25.418C25.0625 23.6953 25.3555 22.4102 25.9375 21.5625C26.5195 20.7148 27.3672 20.293 28.4805 20.293C29.2891 20.293 29.9609 20.6406 30.5 21.3398V16.0781H33.2656V30.9883H30.7695L30.6445 29.9219C30.082 30.7656 29.3555 31.1836 28.4688 31.1836C27.3711 31.1836 26.5312 30.7656 25.9492 29.9219C25.3711 29.082 25.0742 27.8437 25.0625 26.2148V25.418ZM27.8203 26.1055C27.8203 27.1406 27.9297 27.8672 28.1484 28.2773C28.3711 28.6875 28.7422 28.8906 29.2656 28.8906C29.8086 28.8906 30.2188 28.6484 30.5 28.1641V23.3711C30.2266 22.8516 29.8203 22.5938 29.2773 22.5938C28.7695 22.5938 28.4023 22.7969 28.168 23.2031C27.9375 23.6133 27.8203 24.3398 27.8203 25.3789V26.1055Z" fill="#070707"/>
</svg>
