<svg width="48" height="48" viewBox="0 0 48 48" fill="none" xmlns="http://www.w3.org/2000/svg">
<path d="M39.8671 25.9561C38.3291 25.9641 36.9971 26.3331 35.8811 26.8841C35.4731 26.0691 35.0591 25.3521 34.9901 24.8191C34.9091 24.1971 34.8151 23.8251 34.9131 23.0841C35.0111 22.3431 35.4401 21.2931 35.4341 21.2141C35.4281 21.1351 35.3381 20.7581 34.4511 20.7511C33.5641 20.7451 32.8051 20.9221 32.7161 21.1561C32.6271 21.3901 32.4561 21.9171 32.3501 22.4671C32.1951 23.2711 30.5791 26.1401 29.6621 27.6401C29.3621 27.0541 29.1071 26.5381 29.0541 26.1301C28.9731 25.5081 28.8791 25.1361 28.9771 24.3951C29.0751 23.6541 29.5041 22.6041 29.4981 22.5251C29.4921 22.4461 29.4021 22.0691 28.5151 22.0621C27.6281 22.0561 26.8691 22.2331 26.7801 22.4671C26.6911 22.7011 26.5951 23.2481 26.4141 23.7781C26.2321 24.3071 24.0851 29.0921 23.5221 30.3331C23.2351 30.9651 22.9861 31.4731 22.8101 31.8191C22.8091 31.8181 22.8091 31.8171 22.8091 31.8171C22.8091 31.8171 22.7981 31.8401 22.7801 31.8791C22.6291 32.1741 22.5401 32.3371 22.5401 32.3371C22.5401 32.3371 22.5411 32.3391 22.5431 32.3431C22.4231 32.5601 22.2951 32.7611 22.2321 32.7611C22.1881 32.7611 22.0991 32.1841 22.2511 31.3921C22.5711 29.7321 23.3381 27.1441 23.3311 27.0541C23.3271 27.0081 23.4741 26.5571 22.8301 26.3211C22.2041 26.0921 21.9811 26.4741 21.9241 26.4751C21.8691 26.4761 21.8281 26.6101 21.8281 26.6101C21.8281 26.6101 22.5251 23.6991 20.4981 23.6991C19.2301 23.6991 17.4741 25.0861 16.6091 26.3431C16.0631 26.6411 14.8941 27.2791 13.6551 27.9601C13.1791 28.2221 12.6931 28.4891 12.2321 28.7431C12.2011 28.7081 12.1691 28.6741 12.1371 28.6391C9.67813 26.0161 5.13413 24.1611 5.32613 20.6341C5.39613 19.3521 5.84213 15.9761 14.0591 11.8821C20.7901 8.52805 26.1791 9.45105 27.1101 11.4961C28.4401 14.4191 24.2301 19.8501 17.2401 20.6341C14.5771 20.9331 13.1741 19.9001 12.8251 19.5161C12.4581 19.1111 12.4031 19.0931 12.2661 19.1691C12.0431 19.2931 12.1841 19.6501 12.2661 19.8631C12.4751 20.4061 13.3311 21.3691 14.7911 21.8491C16.0761 22.2711 19.2031 22.5021 22.9841 21.0391C27.2201 19.4011 30.5271 14.8431 29.5551 11.0341C28.5671 7.16005 22.1431 5.88605 16.0631 8.04605C12.4401 9.33205 8.52313 11.3501 5.70613 13.9841C2.35713 17.1161 1.82313 19.8431 2.04313 20.9821C2.82513 25.0301 8.40413 27.6661 10.6381 29.6191C10.5281 29.6801 10.4241 29.7371 10.3301 29.7891C9.21013 30.3431 4.95713 32.5691 3.89313 34.9201C2.68613 37.5871 4.08513 39.5011 5.01113 39.7591C7.88013 40.5571 10.8241 39.1211 12.4071 36.7611C13.9891 34.4021 13.7961 31.3291 13.0701 29.9271C13.0611 29.9101 13.0511 29.8931 13.0421 29.8751C13.3311 29.7041 13.6261 29.5301 13.9181 29.3581C14.4881 29.0231 15.0481 28.7111 15.5331 28.4471C15.2611 29.1911 15.0621 30.0841 14.9591 31.3731C14.8371 32.8871 15.4581 34.8441 16.2701 35.6141C16.6281 35.9531 17.0581 35.9611 17.3301 35.9611C18.2751 35.9611 18.7061 35.1751 19.1811 34.2451C19.7631 33.1051 20.2801 31.7771 20.2801 31.7771C20.2801 31.7771 19.6321 35.3631 21.3981 35.3631C22.0421 35.3631 22.6891 34.5281 22.9781 34.1031C22.9791 34.1081 22.9791 34.1101 22.9791 34.1101C22.9791 34.1101 22.9961 34.0821 23.0291 34.0271C23.0961 33.9251 23.1341 33.8601 23.1341 33.8601C23.1341 33.8601 23.1351 33.8531 23.1371 33.8411C23.3961 33.3921 23.9701 32.3681 24.8301 30.6791C25.9421 28.4971 27.0081 25.7631 27.0081 25.7631C27.0081 25.7631 27.1071 26.4311 27.4321 27.5371C27.6231 28.1871 28.0291 28.9061 28.3501 29.5961C28.0921 29.9541 27.9341 30.1591 27.9341 30.1591C27.9341 30.1591 27.9351 30.1631 27.9381 30.1701C27.7321 30.4441 27.5011 30.7391 27.2591 31.0271C26.3811 32.0721 25.3361 33.2661 25.1961 33.6101C25.0311 34.0161 25.0701 34.3141 25.3891 34.5551C25.6221 34.7301 26.0361 34.7581 26.4691 34.7291C27.2581 34.6761 27.8121 34.4801 28.0861 34.3611C28.5131 34.2101 29.0101 33.9731 29.4761 33.6301C30.3371 32.9971 30.8561 32.0921 30.8061 30.8921C30.7781 30.2311 30.5681 29.5761 30.3011 28.9581C30.3791 28.8461 30.4571 28.7321 30.5361 28.6181C31.8931 26.6341 32.9461 24.4541 32.9461 24.4541C32.9461 24.4541 33.0451 25.1221 33.3701 26.2281C33.5341 26.7871 33.8591 27.3981 34.1511 27.9961C32.8751 29.0331 32.0841 30.2381 31.8091 31.0281C31.3011 32.4901 31.6991 33.1521 32.4451 33.3031C32.7831 33.3711 33.2611 33.2161 33.6201 33.0641C34.0671 32.9161 34.6041 32.6691 35.1061 32.3001C35.9671 31.6671 36.7951 30.7811 36.7451 29.5821C36.7221 29.0361 36.5741 28.4941 36.3731 27.9741C37.4551 27.5231 38.8551 27.2731 40.6391 27.4811C44.4661 27.9281 45.2161 30.3171 45.0731 31.3171C44.9291 32.3171 44.1271 32.8671 43.8581 33.0331C43.5901 33.1991 43.5081 33.2571 43.5301 33.3801C43.5631 33.5591 43.6871 33.5531 43.9161 33.5141C44.2311 33.4611 45.9251 32.7011 45.9981 30.8551C46.0891 28.5091 43.8441 25.9351 39.8671 25.9561ZM10.3701 35.9001C9.10213 37.2831 7.33213 37.8051 6.57213 37.3651C5.75213 36.8901 6.07713 34.8541 7.63213 33.3861C8.58013 32.4921 9.80413 31.6681 10.6161 31.1611C10.8011 31.0501 11.0721 30.8871 11.4021 30.6891C11.4571 30.6581 11.4881 30.6411 11.4881 30.6411L11.4871 30.6391C11.5511 30.6011 11.6161 30.5621 11.6831 30.5211C12.2501 32.6101 11.7011 34.4491 10.3701 35.9001ZM19.6051 29.6231C19.1641 30.6991 18.2401 33.4531 17.6771 33.3051C17.1941 33.1781 16.9001 31.0851 17.5811 29.0251C17.9231 27.9881 18.6551 26.7491 19.0851 26.2681C19.7771 25.4941 20.5391 25.2411 20.7241 25.5551C20.9591 25.9551 19.8821 28.9481 19.6051 29.6231ZM27.2341 33.2631C27.0471 33.3611 26.8751 33.4221 26.7961 33.3751C26.7371 33.3401 26.8731 33.2111 26.8731 33.2111C26.8731 33.2111 27.8271 32.1841 28.2031 31.7171C28.4221 31.4451 28.6751 31.1221 28.9511 30.7621C28.9531 30.7981 28.9541 30.8341 28.9541 30.8691C28.9521 32.0991 27.7641 32.9291 27.2341 33.2631ZM33.1111 31.9231C32.9711 31.8241 32.9951 31.5031 33.4541 30.5021C33.6341 30.1091 34.0461 29.4481 34.7601 28.8161C34.8431 29.0761 34.8931 29.3251 34.8921 29.5571C34.8831 31.1051 33.7791 31.6831 33.1111 31.9231Z" fill="white"/>
</svg>
