<svg width="32" height="32" viewBox="0 0 32 32" fill="none" xmlns="http://www.w3.org/2000/svg">
<path d="M25.1663 6C27.0997 6 28.6663 7.56667 28.6663 9.5V22.5C28.6663 24.4333 27.0997 26 25.1663 26H6.83301C5.90475 26 5.01451 25.6313 4.35813 24.9749C3.70176 24.3185 3.33301 23.4283 3.33301 22.5V9.5C3.33301 7.56667 4.89967 6 6.83301 6H25.1663ZM26.9997 12.234L16.401 18.0633C16.292 18.1233 16.1709 18.1581 16.0466 18.1651C15.9224 18.1721 15.7981 18.1513 15.683 18.104L15.5983 18.064L4.99967 12.2333V22.5C4.99967 22.9862 5.19283 23.4525 5.53665 23.7964C5.88046 24.1402 6.34678 24.3333 6.83301 24.3333H25.1663C25.6526 24.3333 26.1189 24.1402 26.4627 23.7964C26.8065 23.4525 26.9997 22.9862 26.9997 22.5V12.234ZM25.1663 7.66667H6.83301C6.34678 7.66667 5.88046 7.85982 5.53665 8.20364C5.19283 8.54745 4.99967 9.01377 4.99967 9.5V10.3327L15.9997 16.382L26.9997 10.332V9.5C26.9997 9.01377 26.8065 8.54745 26.4627 8.20364C26.1189 7.85982 25.6526 7.66667 25.1663 7.66667Z" fill="#CED4DA"/>
</svg>
