<svg width="26" height="26" viewBox="0 0 26 26" fill="none" xmlns="http://www.w3.org/2000/svg">
<g id="ion:logo-linkedin">
<path id="Vector" d="M22.5555 1.625H3.56891C2.53145 1.625 1.625 2.37148 1.625 3.39676V22.4255C1.625 23.4564 2.53145 24.375 3.56891 24.375H22.5499C23.593 24.375 24.375 23.4503 24.375 22.4255V3.39676C24.3811 2.37148 23.593 1.625 22.5555 1.625ZM8.67699 20.5882H5.41785V10.4548H8.67699V20.5882ZM7.16016 8.91414H7.1368C6.09375 8.91414 5.41836 8.1377 5.41836 7.16574C5.41836 6.17602 6.11152 5.41785 7.17793 5.41785C8.24434 5.41785 8.89688 6.17043 8.92023 7.16574C8.91973 8.1377 8.24434 8.91414 7.16016 8.91414ZM20.5882 20.5882H17.3291V15.0475C17.3291 13.7201 16.8548 12.8131 15.6757 12.8131C14.7748 12.8131 14.2416 13.4225 14.0045 14.0161C13.9156 14.2294 13.8917 14.5199 13.8917 14.8164V20.5882H10.6326V10.4548H13.8917V11.865C14.366 11.1896 15.1069 10.2177 16.8309 10.2177C18.9704 10.2177 20.5888 11.6279 20.5888 14.6682L20.5882 20.5882Z" fill="#F3F3F3"/>
</g>
</svg>
