<svg width="26" height="26" viewBox="0 0 26 26" fill="none" xmlns="http://www.w3.org/2000/svg">
<g id="ic:round-email">
<path id="Vector" d="M21.667 4.33301H4.33366C3.14199 4.33301 2.17783 5.30801 2.17783 6.49967L2.16699 19.4997C2.16699 20.6913 3.14199 21.6663 4.33366 21.6663H21.667C22.8587 21.6663 23.8337 20.6913 23.8337 19.4997V6.49967C23.8337 5.30801 22.8587 4.33301 21.667 4.33301ZM21.2337 8.93717L13.5745 13.7255C13.2278 13.9422 12.7728 13.9422 12.4262 13.7255L4.76699 8.93717C4.65836 8.87619 4.56324 8.79381 4.48737 8.695C4.41151 8.59619 4.35648 8.48302 4.32562 8.36233C4.29475 8.24164 4.2887 8.11594 4.30783 7.99284C4.32695 7.86974 4.37086 7.75181 4.43688 7.64617C4.5029 7.54053 4.58968 7.44938 4.69195 7.37825C4.79421 7.30712 4.90985 7.25748 5.03186 7.23233C5.15387 7.20718 5.27972 7.20706 5.40178 7.23195C5.52384 7.25685 5.63958 7.30625 5.74199 7.37717L13.0003 11.9163L20.2587 7.37717C20.3611 7.30625 20.4768 7.25685 20.5989 7.23195C20.7209 7.20706 20.8468 7.20718 20.9688 7.23233C21.0908 7.25748 21.2064 7.30712 21.3087 7.37825C21.411 7.44938 21.4977 7.54053 21.5638 7.64617C21.6298 7.75181 21.6737 7.86974 21.6928 7.99284C21.7119 8.11594 21.7059 8.24164 21.675 8.36233C21.6442 8.48302 21.5891 8.59619 21.5133 8.695C21.4374 8.79381 21.3423 8.87619 21.2337 8.93717Z" fill="#F3F3F3"/>
</g>
</svg>
