<svg width="26" height="26" viewBox="0 0 26 26" fill="none" xmlns="http://www.w3.org/2000/svg">
<g id="basil:document-solid">
<path id="Vector" fill-rule="evenodd" clip-rule="evenodd" d="M15.4378 2.70833C15.4378 2.6365 15.4093 2.56762 15.3585 2.51683C15.3077 2.46603 15.2388 2.4375 15.167 2.4375H7.58366C6.79353 2.4375 6.03577 2.75138 5.47707 3.31008C4.91837 3.86878 4.60449 4.62654 4.60449 5.41667V20.5833C4.60449 21.3735 4.91837 22.1312 5.47707 22.6899C6.03577 23.2486 6.79353 23.5625 7.58366 23.5625H18.417C19.2071 23.5625 19.9649 23.2486 20.5236 22.6899C21.0823 22.1312 21.3962 21.3735 21.3962 20.5833V9.90925C21.3962 9.83742 21.3676 9.76853 21.3168 9.71774C21.266 9.66695 21.1972 9.63842 21.1253 9.63842H16.2503C16.0348 9.63842 15.8282 9.55281 15.6758 9.40044C15.5234 9.24807 15.4378 9.04141 15.4378 8.82592V2.70833ZM16.2503 13.2708C16.4658 13.2708 16.6725 13.3564 16.8248 13.5088C16.9772 13.6612 17.0628 13.8678 17.0628 14.0833C17.0628 14.2988 16.9772 14.5055 16.8248 14.6579C16.6725 14.8102 16.4658 14.8958 16.2503 14.8958H9.75033C9.53484 14.8958 9.32818 14.8102 9.1758 14.6579C9.02343 14.5055 8.93783 14.2988 8.93783 14.0833C8.93783 13.8678 9.02343 13.6612 9.1758 13.5088C9.32818 13.3564 9.53484 13.2708 9.75033 13.2708H16.2503ZM16.2503 17.6042C16.4658 17.6042 16.6725 17.6898 16.8248 17.8421C16.9772 17.9945 17.0628 18.2012 17.0628 18.4167C17.0628 18.6322 16.9772 18.8388 16.8248 18.9912C16.6725 19.1436 16.4658 19.2292 16.2503 19.2292H9.75033C9.53484 19.2292 9.32818 19.1436 9.1758 18.9912C9.02343 18.8388 8.93783 18.6322 8.93783 18.4167C8.93783 18.2012 9.02343 17.9945 9.1758 17.8421C9.32818 17.6898 9.53484 17.6042 9.75033 17.6042H16.2503Z" fill="white"/>
<path id="Vector_2" d="M17.0625 3.05957C17.0625 2.86024 17.2716 2.73349 17.4265 2.85807C17.5576 2.96424 17.6757 3.08774 17.7764 3.22857L21.0405 7.77532C21.1142 7.87932 21.034 8.01365 20.9062 8.01365H17.3333C17.2615 8.01365 17.1926 7.98512 17.1418 7.93433C17.091 7.88354 17.0625 7.81465 17.0625 7.74282V3.05957Z" fill="white"/>
</g>
</svg>
