<svg width="48" height="53" viewBox="0 0 48 53" fill="none" xmlns="http://www.w3.org/2000/svg">
<g clip-path="url(#clip0_319_861)">
<path d="M21.8399 0.672848C23.145 -0.0761059 24.8449 -0.0794889 26.1489 0.672848C32.709 4.38924 39.2712 8.0998 45.8302 11.8184C47.0639 12.5152 47.8891 13.8917 47.8765 15.3168V37.6761C47.8857 39.1602 46.9789 40.5696 45.6774 41.2506C39.1388 44.9465 32.6037 48.6469 26.0662 52.3428C24.7341 53.1064 23.0001 53.0476 21.7097 52.2214C19.7494 51.0821 17.7858 49.9484 15.8253 48.8102C15.4247 48.5708 14.9731 48.3802 14.6903 47.9908C14.9403 47.6528 15.3874 47.6107 15.7507 47.4632C16.569 47.2023 17.3205 46.7836 18.0722 46.3773C18.2623 46.2468 18.4944 46.2968 18.6766 46.4135C20.3528 47.3771 22.0143 48.3687 23.6962 49.3231C24.055 49.5308 24.4183 49.2551 24.7249 49.0837C31.1413 45.4479 37.5655 41.8259 43.9807 38.189C44.2184 38.0743 44.3498 37.8213 44.3305 37.5603C44.335 30.1845 44.3316 22.8073 44.3328 15.4315C44.36 15.1353 44.189 14.8629 43.9219 14.7417C37.406 11.0627 30.8935 7.3781 24.3787 3.69817C24.2658 3.62037 24.1321 3.57863 23.9951 3.57843C23.8582 3.57823 23.7243 3.61958 23.6112 3.69704C17.0965 7.3781 10.5851 11.0661 4.07033 14.7449C3.80414 14.8663 3.62549 15.1341 3.65717 15.4315C3.65829 22.8073 3.65717 30.1845 3.65717 37.5614C3.64587 37.6888 3.67377 37.8166 3.73712 37.9276C3.80047 38.0386 3.89621 38.1274 4.01147 38.1822C5.74996 39.1706 7.4907 40.152 9.23032 41.137C10.2104 41.6659 11.4137 41.9802 12.4934 41.5749C13.4463 41.2323 14.1142 40.2575 14.096 39.2431C14.105 31.9103 14.0915 24.5764 14.1028 17.2447C14.079 16.9192 14.3869 16.6503 14.7026 16.6809C15.5379 16.6753 16.3744 16.6696 17.2097 16.6832C17.5584 16.6753 17.7983 17.0258 17.7552 17.3538C17.7518 24.733 17.7642 32.1124 17.7496 39.4916C17.7518 41.4582 16.9459 43.5982 15.1315 44.5604C12.8963 45.7214 10.1335 45.4751 7.92523 44.362C6.01353 43.4053 4.18918 42.2764 2.3114 41.2515C1.0065 40.5743 0.104257 39.1593 0.113443 37.6763V15.3168C0.0997581 13.8621 0.957758 12.4607 2.22985 11.7741C8.7673 8.07518 15.3036 4.37345 21.8399 0.672848Z" fill="white"/>
<path d="M27.5428 16.1614C30.3941 15.9774 33.4465 16.0524 36.0122 17.4606C37.9987 18.5398 39.1001 20.8047 39.1351 23.0174C39.0796 23.3158 38.7684 23.4805 38.4843 23.46C37.657 23.4588 36.8296 23.4712 36.0023 23.4543C35.6514 23.4679 35.4474 23.1435 35.4034 22.8324C35.1657 21.7737 34.5898 20.7252 33.5959 20.2146C32.0702 19.4487 30.3011 19.4872 28.6374 19.5032C27.4229 19.5679 26.1168 19.6733 25.0879 20.3894C24.2979 20.9318 24.058 22.0267 24.3399 22.9085C24.6057 23.5417 25.3348 23.746 25.9312 23.9343C29.3674 24.8353 33.0086 24.7457 36.3791 25.9314C37.7745 26.4148 39.1396 27.3545 39.6173 28.8194C40.2421 30.7826 39.9682 33.1293 38.575 34.7054C37.4452 36.0024 35.7997 36.7083 34.1585 37.0917C31.9751 37.5798 29.7093 37.5922 27.492 37.3755C25.4071 37.1372 23.2375 36.588 21.6279 35.1637C20.2516 33.9656 19.5794 32.0988 19.6461 30.297C19.6621 29.9927 19.9642 29.7805 20.255 29.8055C21.0881 29.7987 21.9211 29.7965 22.7542 29.8066C23.0869 29.7827 23.3336 30.0711 23.3507 30.3855C23.5044 31.3942 23.8825 32.4529 24.7598 33.0509C26.4529 34.146 28.5774 34.071 30.5161 34.1017C32.1223 34.0303 33.9253 34.0086 35.236 32.9443C35.9275 32.3373 36.1324 31.3216 35.9455 30.4479C35.743 29.7102 34.9733 29.3665 34.3124 29.1417C30.9203 28.0659 27.2384 28.4562 23.8791 27.2397C22.5154 26.7565 21.1966 25.8429 20.6727 24.4382C19.9416 22.4501 20.2765 19.9911 21.8158 18.4682C23.3166 16.9534 25.483 16.37 27.5428 16.1612V16.1614Z" fill="white"/>
</g>
<defs>
<clipPath id="clip0_319_861">
<rect width="48" height="53" fill="white"/>
</clipPath>
</defs>
</svg>
