<svg width="48" height="48" viewBox="0 0 48 48" fill="none" xmlns="http://www.w3.org/2000/svg">
<path d="M23.9998 4.05005C18.7087 4.05005 13.6344 6.15192 9.89302 9.89327C6.15167 13.6346 4.0498 18.709 4.0498 24C4.0498 29.2911 6.15167 34.3655 9.89302 38.1068C13.6344 41.8482 18.7087 43.9501 23.9998 43.9501C29.2909 43.9501 34.3652 41.8482 38.1066 38.1068C41.8479 34.3655 43.9498 29.2911 43.9498 24C43.9498 18.709 41.8479 13.6346 38.1066 9.89327C34.3652 6.15192 29.2909 4.05005 23.9998 4.05005Z" fill="white"/>
<path d="M8.00098 24C8.00098 30.336 11.681 35.806 17.019 38.4L9.38498 17.488C8.49798 19.479 8.00098 21.676 8.00098 24ZM34.804 23.194C34.804 21.217 33.741 19.844 33.134 18.782C32.321 17.453 31.558 16.345 31.558 15.03C31.558 13.565 33.029 12.19 34.599 12.19C34.67 12.19 34.734 12.196 34.805 12.198C31.961 9.584 28.168 8 24.001 8C18.612 8 13.848 10.666 10.949 14.749C11.177 14.823 11.256 14.788 11.56 14.788C13.229 14.788 15.824 14.588 15.824 14.588C16.684 14.531 16.789 15.8 15.923 15.904C15.923 15.904 15.059 16.009 14.095 16.056L20.026 33.834L23.526 23.333L20.923 16.085C20.062 16.039 19.244 15.933 19.244 15.933C18.382 15.877 18.482 14.558 19.342 14.617C19.342 14.617 21.99 14.817 23.559 14.817C25.234 14.817 27.823 14.617 27.823 14.617C28.684 14.56 28.788 15.829 27.927 15.933C27.927 15.933 27.057 16.038 26.095 16.085L31.986 33.695L33.585 28.369C34.399 26.289 34.804 24.569 34.804 23.194ZM24.281 25.396L19.481 39.348C20.917 39.774 22.431 40 24.001 40C25.862 40 27.65 39.676 29.317 39.093C29.277 39.022 29.232 38.95 29.199 38.873L24.281 25.396ZM38.043 16.318C38.114 16.828 38.151 17.377 38.151 17.963C38.151 19.591 37.845 21.414 36.932 23.7L32.047 37.835C36.805 35.063 40 29.902 40 24C40 21.219 39.289 18.604 38.043 16.318Z" fill="#070707"/>
<path d="M4 24C4 35.024 12.97 44 23.999 44C35.03 44 44 35.024 44 24C44 12.976 35.03 4 24 4C12.97 4 4 12.976 4 24ZM5.995 24C5.995 14.076 14.069 6.001 23.999 6.001C33.929 6.001 42.005 14.076 42.005 24C42.005 33.924 33.929 42.001 24 42.001C14.072 42.001 5.995 33.924 5.995 24Z" fill="#070707"/>
</svg>
