<svg width="48" height="48" viewBox="0 0 48 48" fill="none" xmlns="http://www.w3.org/2000/svg">
<g clip-path="url(#clip0_319_858)">
<path d="M22.4295 0.0374411C22.3263 0.0468152 21.9982 0.0796245 21.703 0.10306C14.8927 0.717062 8.51363 4.3917 4.47339 10.0396C2.22361 13.1799 0.784692 16.7421 0.240995 20.5151C0.0488258 21.8322 0.0253906 22.2212 0.0253906 24.007C0.0253906 25.7927 0.0488258 26.1818 0.240995 27.4988C1.54399 36.5026 7.95118 44.0675 16.641 46.8704C18.1971 47.3719 19.8375 47.714 21.703 47.9203C22.4295 48 25.5698 48 26.2963 47.9203C29.5163 47.5641 32.2441 46.7673 34.9345 45.394C35.3469 45.183 35.4266 45.1268 35.3704 45.0799C35.3329 45.0518 33.5752 42.6942 31.4661 39.8445L27.6321 34.6653L22.8279 27.5551C20.1844 23.6461 18.0096 20.4495 17.9908 20.4495C17.9721 20.4448 17.9533 23.6039 17.944 27.4613C17.9299 34.2154 17.9252 34.4872 17.8408 34.6466C17.719 34.8762 17.6252 34.97 17.4284 35.0731C17.2784 35.1481 17.1472 35.1621 16.4394 35.1621H15.6286L15.413 35.0262C15.2723 34.9372 15.1692 34.82 15.0989 34.6841L15.0005 34.4731L15.0099 25.0756L15.0239 15.6734L15.1692 15.4906C15.2442 15.3922 15.4036 15.2656 15.5161 15.2047C15.7082 15.111 15.7832 15.1016 16.5941 15.1016C17.5502 15.1016 17.7096 15.1391 17.958 15.4109C18.0283 15.4859 20.6296 19.4043 23.7418 24.1242C26.854 28.844 31.1099 35.2887 33.2003 38.4524L36.9968 44.2034L37.189 44.0769C38.8904 42.9708 40.6902 41.3959 42.115 39.7554C45.1476 36.273 47.1021 32.0265 47.7582 27.4988C47.9504 26.1818 47.9738 25.7927 47.9738 24.007C47.9738 22.2212 47.9504 21.8322 47.7582 20.5151C46.4552 11.5113 40.048 3.94643 31.3583 1.14358C29.8256 0.646757 28.1945 0.304603 26.3666 0.0983727C25.9166 0.0515023 22.8185 -5.52125e-05 22.4295 0.0374411ZM32.2441 14.5392C32.4691 14.6516 32.6519 14.8672 32.7175 15.0922C32.755 15.2141 32.7644 17.8201 32.755 23.6929L32.741 32.1202L31.2552 29.8423L29.7647 27.5644V21.4385C29.7647 17.4779 29.7834 15.2516 29.8115 15.1438C29.8865 14.8813 30.0506 14.6751 30.2756 14.5532C30.4677 14.4548 30.538 14.4454 31.2739 14.4454C31.9676 14.4454 32.0895 14.4548 32.2441 14.5392Z" fill="white"/>
<path d="M36.7627 44.3066C36.5986 44.4097 36.5471 44.48 36.6924 44.4003C36.7955 44.3394 36.9642 44.2128 36.9361 44.2081C36.922 44.2081 36.8423 44.255 36.7627 44.3066ZM36.4393 44.5175C36.3549 44.5831 36.3549 44.5878 36.458 44.5362C36.5143 44.5081 36.5611 44.4753 36.5611 44.4659C36.5611 44.4284 36.5377 44.4378 36.4393 44.5175ZM36.2049 44.6581C36.1205 44.7237 36.1205 44.7284 36.2237 44.6768C36.2799 44.6487 36.3268 44.6159 36.3268 44.6065C36.3268 44.569 36.3033 44.5784 36.2049 44.6581ZM35.9706 44.7987C35.8862 44.8643 35.8862 44.869 35.9893 44.8174C36.0455 44.7893 36.0924 44.7565 36.0924 44.7471C36.0924 44.7096 36.069 44.719 35.9706 44.7987ZM35.6143 44.9862C35.4362 45.0799 35.4456 45.1174 35.6237 45.0284C35.7034 44.9862 35.7643 44.944 35.7643 44.9346C35.7643 44.9018 35.7596 44.9065 35.6143 44.9862Z" fill="white"/>
</g>
<defs>
<clipPath id="clip0_319_858">
<rect width="48" height="48" fill="white"/>
</clipPath>
</defs>
</svg>
