<svg width="32" height="32" viewBox="0 0 32 32" fill="none" xmlns="http://www.w3.org/2000/svg">
<path d="M26.0696 3.99604C25.7486 4.0194 25.4335 4.09471 25.1366 4.21904H25.1326C24.8476 4.33204 23.4926 4.90204 21.4326 5.76604L14.0506 8.87504C8.75363 11.105 3.54663 13.301 3.54663 13.301L3.60863 13.277C3.60863 13.277 3.24963 13.395 2.87463 13.652C2.64296 13.7995 2.4436 13.9924 2.28863 14.219C2.10463 14.489 1.95663 14.902 2.01163 15.329C2.10163 16.051 2.56963 16.484 2.90563 16.723C3.24563 16.965 3.56963 17.078 3.56963 17.078H3.57763L8.46063 18.723C8.67963 19.426 9.94863 23.598 10.2536 24.559C10.4336 25.133 10.6086 25.492 10.8276 25.766C10.9336 25.906 11.0576 26.023 11.2066 26.117C11.2841 26.1621 11.3667 26.1977 11.4526 26.223L11.4026 26.211C11.4176 26.215 11.4296 26.227 11.4406 26.231C11.4806 26.242 11.5076 26.246 11.5586 26.254C12.3316 26.488 12.9526 26.008 12.9526 26.008L12.9876 25.98L15.8706 23.355L20.7026 27.062L20.8126 27.109C21.8196 27.551 22.8396 27.305 23.3786 26.871C23.9216 26.434 24.1326 25.875 24.1326 25.875L24.1676 25.785L27.9016 6.65604C28.0076 6.18404 28.0346 5.74204 27.9176 5.31304C27.797 4.87887 27.5184 4.50545 27.1366 4.26604C26.8161 4.07116 26.4443 3.97709 26.0696 3.99604V3.99604ZM25.9686 6.04604C25.9646 6.10904 25.9766 6.10204 25.9486 6.22304V6.23404L22.2496 25.164C22.2336 25.191 22.2066 25.25 22.1326 25.309C22.0546 25.371 21.9926 25.41 21.6676 25.281L15.7576 20.75L12.1876 24.004L12.9376 19.214L22.5936 10.214C22.9916 9.84404 22.8586 9.76604 22.8586 9.76604C22.8866 9.31204 22.2576 9.63304 22.2576 9.63304L10.0816 17.176L10.0776 17.156L4.24163 15.191V15.187L4.22663 15.184C4.23686 15.1806 4.24688 15.1766 4.25663 15.172L4.28863 15.156L4.31963 15.145C4.31963 15.145 9.53063 12.949 14.8276 10.719C17.4796 9.60204 20.1516 8.47704 22.2066 7.60904C23.4254 7.09605 24.6454 6.58604 25.8666 6.07904C25.9486 6.04704 25.9096 6.04704 25.9686 6.04704V6.04604Z" fill="#CED4DA"/>
</svg>
