<svg width="32" height="32" viewBox="0 0 32 32" fill="none" xmlns="http://www.w3.org/2000/svg">
<path fill-rule="evenodd" clip-rule="evenodd" d="M12.5723 11.9585H17.5243V14.4252C18.2377 13.0065 20.067 11.7318 22.815 11.7318C28.083 11.7318 29.3337 14.5558 29.3337 19.7372V29.3332H24.0003V20.9172C24.0003 17.9665 23.287 16.3025 21.471 16.3025C18.9523 16.3025 17.9057 18.0958 17.9057 20.9158V29.3332H12.5723V11.9585V11.9585ZM3.42699 29.1065H8.76033V11.7318H3.42699V29.1065V29.1065ZM9.52433 6.0665C9.52452 6.51354 9.43587 6.95615 9.26351 7.36862C9.09115 7.78109 8.83853 8.15519 8.52032 8.46917C7.87553 9.11 7.00274 9.46871 6.09366 9.4665C5.18618 9.46589 4.31541 9.1081 3.66966 8.4705C3.35261 8.15545 3.10084 7.78094 2.92878 7.36841C2.75673 6.95589 2.66776 6.51347 2.66699 6.0665C2.66699 5.16384 3.02699 4.29984 3.67099 3.6625C4.31617 3.02405 5.18731 2.6661 6.09499 2.6665C7.00433 2.6665 7.87633 3.02517 8.52032 3.6625C9.16299 4.29984 9.52433 5.16384 9.52433 6.0665Z" fill="#CED4DA"/>
</svg>
