<svg width="48" height="48" viewBox="0 0 48 48" fill="none" xmlns="http://www.w3.org/2000/svg">
<path d="M42 6H6V42H42V6Z" fill="white"/>
<path d="M27.4896 22H14.2266V25.264H18.9836V40H22.7526V25.264H27.4896V22Z" fill="black"/>
<path d="M39.194 26.084C39.194 26.084 37.407 24.892 35.387 24.892C33.367 24.892 32.64 25.852 32.64 26.878C32.64 29.526 40.021 29.261 40.021 34.59C40.021 42.799 28.767 39.158 28.767 39.158V35.22C28.767 35.22 30.919 36.842 33.5 36.842C36.081 36.842 35.983 35.154 35.983 34.922C35.983 32.473 28.668 32.473 28.668 27.044C28.668 19.663 39.326 22.575 39.326 22.575L39.194 26.084Z" fill="black"/>
</svg>
