<svg width="48" height="48" viewBox="0 0 48 48" fill="none" xmlns="http://www.w3.org/2000/svg">
<path d="M24 34C11.1 34 1 29.6 1 24C1 18.4 11.1 14 24 14C36.9 14 47 18.4 47 24C47 29.6 36.9 34 24 34ZM24 16C11.4 16 3 20.1 3 24C3 27.9 11.4 32 24 32C36.6 32 45 27.9 45 24C45 20.1 36.6 16 24 16Z" fill="white"/>
<path d="M15.0996 44.6C14.0996 44.6 13.2996 44.4 12.4996 43.9C7.59959 41.1 8.89959 30.2 15.2996 19C18.2996 13.8 21.9996 9.39996 25.5996 6.59996C29.4996 3.59996 32.9996 2.69996 35.3996 4.09996C37.8996 5.49996 38.7996 8.99996 38.1996 13.9C37.5996 18.5 35.5996 23.9 32.5996 29.1C29.5996 34.3 25.8996 38.7 22.2996 41.5C19.6996 43.5 17.1996 44.6 15.0996 44.6ZM32.8996 5.39996C31.2996 5.39996 29.1996 6.29996 26.8996 8.09996C23.4996 10.8 19.9996 15 17.0996 20C10.7996 30.9 10.1996 40.3 13.4996 42.2C15.1996 43.2 17.9996 42.3 21.0996 39.9C24.4996 37.2 27.9996 33 30.8996 28C33.7996 23 35.6996 17.9 36.2996 13.6C36.7996 9.59996 36.1996 6.79996 34.4996 5.79996C33.9996 5.59996 33.4996 5.39996 32.8996 5.39996Z" fill="white"/>
<path d="M32.9996 44.5999C27.9996 44.5999 20.7996 38.4999 15.3996 28.9999C8.89957 17.7999 7.59957 6.89995 12.4996 4.09995C17.3996 1.29995 26.1996 7.79995 32.6996 18.9999C35.6996 24.1999 37.6996 29.5999 38.2996 34.1999C38.9996 39.0999 37.9996 42.4999 35.4996 43.9999C34.6996 44.3999 33.8996 44.5999 32.9996 44.5999ZM13.4996 5.79995C10.1996 7.69995 10.7996 17.0999 17.0996 27.9999C23.3996 38.8999 31.1996 44.0999 34.4996 42.1999C36.1996 41.1999 36.7996 38.3999 36.2996 34.4C35.6996 30.0999 33.7996 24.9999 30.8996 19.9999C24.5996 9.09995 16.7996 3.89995 13.4996 5.79995Z" fill="white"/>
<path d="M24 28C26.2091 28 28 26.2091 28 24C28 21.7909 26.2091 20 24 20C21.7909 20 20 21.7909 20 24C20 26.2091 21.7909 28 24 28Z" fill="white"/>
</svg>
