<svg width="35" height="35" viewBox="0 0 35 35" fill="none" xmlns="http://www.w3.org/2000/svg">
<path d="M11.8416 13.5479L17.4999 19.2063L23.1582 13.5479C23.2932 13.4129 23.4535 13.3058 23.6299 13.2327C23.8063 13.1597 23.9954 13.1221 24.1863 13.1221C24.3773 13.1221 24.5664 13.1597 24.7428 13.2327C24.9192 13.3058 25.0795 13.4129 25.2145 13.5479C25.3495 13.6829 25.4566 13.8432 25.5297 14.0196C25.6027 14.196 25.6403 14.3851 25.6403 14.576C25.6403 14.767 25.6027 14.9561 25.5297 15.1325C25.4566 15.3089 25.3495 15.4692 25.2145 15.6042L18.5207 22.2979C18.3858 22.4331 18.2256 22.5404 18.0491 22.6136C17.8727 22.6867 17.6836 22.7244 17.4926 22.7244C17.3016 22.7244 17.1125 22.6867 16.9361 22.6136C16.7596 22.5404 16.5994 22.4331 16.4645 22.2979L9.77072 15.6042C9.63553 15.4693 9.52827 15.309 9.45509 15.1326C9.38191 14.9562 9.34424 14.767 9.34424 14.576C9.34424 14.385 9.38191 14.1959 9.45509 14.0195C9.52827 13.8431 9.63553 13.6828 9.77072 13.5479C10.3395 12.9938 11.2728 12.9792 11.8416 13.5479Z" fill="white"/>
</svg>
